#!OML:ASF I:\golf\golf\golf 2\Subject 1\2002-09-07\Subject1.ASF
:FULLY-SPECIFIED
:DEGREES
370
root -6.55323 18.1976 -0.866374 -161.703 63.2263 -175.603
lowerback -3.72884 -7.94933 3.59033
upperback 4.02811 -10.9801 10.2596
thorax 7.80491 -5.36 7.80249
lowerneck -14.3519 -0.0524792 1.74366
upperneck 29.4858 4.80957 -13.6226
head 12.5934 1.0197 -4.75489
rclavicle -1.59028e-015 3.49861e-014
rhumerus -12.2846 -0.583353 -79.1973
rradius 70.9447
rwrist -63.1333
rhand -65.2473 11.7847
rfingers 7.12502
rthumb -37.1315 -14.2457
lclavicle -1.59028e-015 3.49861e-014
lhumerus 46.3181 -70.0868 74.722
lradius 21.2001
lwrist 1.30957
lhand -2.1335 33.2401
lfingers 7.12502
lthumb -156.455 -118.181
rfemur -16.0733 -0.503031 6.80948
rtibia 29.2204
rfoot -3.83193 -24.6759
rtoes 2.77535
lfemur -25.5933 2.94482 -13.5345
ltibia 16.0173
lfoot -5.13003 -17.8797
ltoes -11.1934
371
root -6.53608 18.2135 -0.930907 -163.074 61.4685 -176.209
lowerback -4.01381 -7.58138 3.13145
upperback 3.76067 -10.4303 11.3168
thorax 7.93302 -5.12331 9.29496
lowerneck -14.107 -1.20404 0.629146
upperneck 29.8909 3.68106 -13.8677
head 12.5918 0.406002 -4.82645
rclavicle 3.33958e-014 5.08889e-014
rhumerus -12.6778 2.00285 -79.263
rradius 67.8527
rwrist -66.0853
rhand -63.3376 5.79172
rfingers 7.12502
rthumb -35.3231 -20.6883
lclavicle 3.33958e-014 5.08889e-014
lhumerus 41.308 -69.8652 78.2526
lradius 21.2312
lwrist 2.04069
lhand -0.245594 35.3099
lfingers 7.12502
lthumb -154.645 -116.356
rfemur -14.861 -0.632936 6.62334
rtibia 29.8776
rfoot -3.2454 -24.9082
rtoes 4.43535
lfemur -24.4523 2.57851 -13.9292
ltibia 15.0543
lfoot -4.65661 -19.3692
ltoes -10.3614
372
root -6.51625 18.2283 -0.985363 -164.33 60.1074 -176.805
lowerback -4.84547 -6.96578 3.49
upperback 3.78883 -9.68022 11.4892
thorax 8.30184 -4.71132 9.31196
lowerneck -13.8693 -2.23423 0.402997
upperneck 30.25 2.25203 -13.6097
head 12.5329 -0.201072 -4.89517
rclavicle 2.14687e-014 -1.36764e-013
rhumerus -12.703 3.46717 -81.0089
rradius 64.2636
rwrist -67.9488
rhand -61.6565 2.26786
rfingers 7.12502
rthumb -33.7274 -24.576
lclavicle 2.14687e-014 -1.36764e-013
lhumerus 37.8453 -70.4586 79.0007
lradius 21.587
lwrist 3.48874
lhand 1.95906 38.117
lfingers 7.12502
lthumb -152.535 -113.866
rfemur -13.9019 -0.625007 6.33046
rtibia 30.5563
rfoot -2.40309 -24.932
rtoes 5.67221
lfemur -23.2985 2.47728 -14.4218
ltibia 14.115
lfoot -4.57871 -20.6558
ltoes -11.2233
373
root -6.49208 18.2408 -1.02834 -165.276 59.3304 -177.196
lowerback -5.58678 -6.15492 3.43423
upperback 3.75065 -8.63185 11.7542
thorax 8.59068 -4.18654 9.74512
lowerneck -13.4548 -3.2936 0.17112
upperneck 30.5772 0.788866 -13.3882
head 12.4292 -0.818672 -4.96765
rclavicle -2.94201e-014 -7.31528e-014
rhumerus -12.52 5.19706 -82.5728
rradius 60.4622
rwrist -69.9361
rhand -60.7759 1.36012
rfingers 7.12502
rthumb -32.8901 -25.6632
lclavicle -2.94201e-014 -7.31528e-014
lhumerus 33.4049 -70.729 81.1657
lradius 21.7526
lwrist 4.90269
lhand 4.21053 41.3506
lfingers 7.12502
lthumb -150.383 -110.993
rfemur -13.289 -0.310593 6.00304
rtibia 31.2327
rfoot -1.52682 -24.8342
rtoes 7.35828
lfemur -22.1829 2.83543 -14.8973
ltibia 13.2438
lfoot -4.66062 -21.7433
ltoes -11.6538
374
root -6.47624 18.2434 -1.08211 -166.688 57.7106 -177.832
lowerback -5.68393 -5.78931 2.94671
upperback 3.4137 -8.02845 12.4954
thorax 8.38751 -3.91358 10.99
lowerneck -12.8826 -4.34902 -0.536642
upperneck 30.9055 -0.408975 -13.4729
head 12.3431 -1.3904 -5.02718
rclavicle -3.81667e-014 2.19458e-013
rhumerus -12.3557 7.81603 -83.2769
rradius 56.6954
rwrist -71.8072
rhand -59.2243 -1.2986
rfingers 7.12502
rthumb -31.4131 -28.6205
lclavicle -3.81667e-014 2.19458e-013
lhumerus 27.4763 -69.9678 85.7503
lradius 21.5874
lwrist 5.92567
lhand 6.26238 44.8643
lfingers 7.12502
lthumb -148.427 -107.845
rfemur -12.1308 -0.560874 5.72123
rtibia 31.8887
rfoot -0.295678 -24.7452
rtoes 7.43052
lfemur -20.9204 2.41343 -15.3467
ltibia 12.2731
lfoot -4.36645 -22.8942
ltoes -11.1778
375
root -6.46008 18.2468 -1.13047 -167.868 56.1688 -178.257
lowerback -6.15949 -5.2966 3.78039
upperback 3.26137 -7.42839 12.2653
thorax 8.22546 -3.53485 10.2873
lowerneck -12.2494 -5.20929 -0.289294
upperneck 31.2424 -1.80208 -13.0495
head 12.204 -1.89863 -5.07199
rclavicle -3.4191e-014 1.52667e-013
rhumerus -12.1756 9.47066 -85.6111
rradius 52.7302
rwrist -72.4951
rhand -55.9528 -5.6359
rfingers 7.12502
rthumb -28.2911 -33.5194
lclavicle -3.4191e-014 1.52667e-013
lhumerus 22.959 -70.1787 87.2787
lradius 21.8015
lwrist 7.77605
lhand 8.01794 48.7786
lfingers 7.12502
lthumb -146.756 -104.273
rfemur -11.0717 -0.777195 5.5282
rtibia 32.5211
rfoot 1.09074 -24.507
rtoes 6.8808
lfemur -19.5852 1.97836 -15.6926
ltibia 11.1391
lfoot -4.12707 -23.8743
ltoes -11.5612
376
root -6.43156 18.2445 -1.17132 -168.867 54.4897 -178.782
lowerback -6.90299 -4.7932 4.30445
upperback 3.02056 -6.82677 12.0892
thorax 8.19784 -3.18317 9.82158
lowerneck -11.6806 -6.15605 -0.0852305
upperneck 31.5658 -3.32024 -12.5782
head 12.071 -2.46424 -5.09806
rclavicle 1.59028e-015 -2.70347e-013
rhumerus -11.6587 10.8444 -87.8355
rradius 48.6292
rwrist -72.8528
rhand -52.2423 -8.44912
rfingers 7.12502
rthumb -24.7397 -36.8693
lclavicle 1.59028e-015 -2.70347e-013
lhumerus 18.9435 -70.3622 88.646
lradius 22.0155
lwrist 10.1426
lhand 9.76009 52.2998
lfingers 7.12502
lthumb -145.101 -101.121
rfemur -10.1685 -1.09782 5.34406
rtibia 33.0518
rfoot 2.03864 -24.5501
rtoes 7.55718
lfemur -18.5827 1.40388 -16.0282
ltibia 10.0494
lfoot -3.19359 -24.9984
ltoes -9.31485
377
root -6.41384 18.2358 -1.20494 -169.727 53.3537 -179.073
lowerback -7.21883 -4.06221 4.50616
upperback 2.82052 -5.83339 12.1738
thorax 7.99839 -2.66136 9.94014
lowerneck -11.3018 -7.29263 -0.414528
upperneck 31.9796 -4.9816 -11.9945
head 12.0457 -3.14157 -5.01522
rclavicle 3.18055e-014 5.40694e-014
rhumerus -10.656 11.9707 -89.4253
rradius 44.309
rwrist -72.2398
rhand -48.3183 -10.959
rfingers 7.12502
rthumb -20.9743 -39.8449
lclavicle 3.18055e-014 5.40694e-014
lhumerus 15.6613 -70.3835 90.0942
lradius 22.2003
lwrist 12.9803
lhand 11.5811 55.7453
lfingers 7.12502
lthumb -143.376 -98.0941
rfemur -9.44036 -1.13308 5.16144
rtibia 33.4762
rfoot 3.23692 -24.4639
rtoes 8.31778
lfemur -17.5451 0.937035 -16.2494
ltibia 9.12324
lfoot -2.23559 -25.6764
ltoes -7.17502
378
root -6.39405 18.2326 -1.2388 -170.581 52.0729 -179.225
lowerback -7.23828 -3.38949 4.63207
upperback 2.58565 -4.85611 12.4184
thorax 7.619 -2.14732 10.2964
lowerneck -11.1193 -8.50794 -1.07443
upperneck 32.5002 -6.64896 -11.418
head 12.1489 -3.85785 -4.89975
rclavicle 1.59028e-015 6.67916e-014
rhumerus -9.41072 12.9389 -90.6486
rradius 40.1308
rwrist -71.1704
rhand -44.041 -12.6839
rfingers 7.12502
rthumb -16.8607 -41.9719
lclavicle 1.59028e-015 6.67916e-014
lhumerus 12.2587 -69.6177 92.2623
lradius 22.2576
lwrist 15.9084
lhand 13.2367 59.688
lfingers 7.12502
lthumb -141.811 -94.5646
rfemur -8.47357 -1.20984 5.13127
rtibia 33.8075
rfoot 4.08587 -24.436
rtoes 9.84541
lfemur -16.3301 0.339468 -16.3774
ltibia 8.14903
lfoot -0.83953 -26.1165
ltoes -4.41243
379
root -6.37079 18.2297 -1.26988 -171.605 50.8946 -179.586
lowerback -7.09082 -2.70729 4.54045
upperback 2.27721 -3.82452 12.5764
thorax 7.0566 -1.61579 10.6762
lowerneck -10.711 -9.6622 -1.58963
upperneck 32.8834 -8.26226 -10.9263
head 12.1646 -4.53564 -4.81182
rclavicle 7.95139e-014 1.20861e-013
rhumerus -8.068 13.3016 -92.0009
rradius 36.0803
rwrist -69.5224
rhand -39.3743 -13.2807
rfingers 7.12502
rthumb -12.3646 -42.8951
lclavicle 7.95139e-014 1.20861e-013
lhumerus 8.40162 -67.7551 95.1334
lradius 22.1259
lwrist 18.9789
lhand 14.1435 63.3341
lfingers 7.12502
lthumb -140.955 -91.1588
rfemur -7.45567 -1.19336 4.98127
rtibia 34.0569
rfoot 4.88887 -24.5618
rtoes 11.044
lfemur -15.2181 -0.177203 -16.6789
ltibia 7.46846
lfoot 1.23564 -26.2206
ltoes 1.40809
380
root -6.35043 18.2254 -1.29668 -172.626 49.7379 -180.057
lowerback -6.97991 -2.00196 4.21762
upperback 1.98059 -2.74709 12.7601
thorax 6.52789 -1.06856 11.2211
lowerneck -10.123 -10.7423 -2.10793
upperneck 32.932 -9.83584 -10.3797
head 12.0358 -5.19446 -4.66191
rclavicle 2.14687e-014 2.16278e-013
rhumerus -6.33189 12.8595 -93.2101
rradius 32.0834
rwrist -66.5038
rhand -34.3897 -13.9089
rfingers 7.12502
rthumb -7.55571 -43.754
lclavicle 2.14687e-014 2.16278e-013
lhumerus 5.44337 -64.6109 97.8638
lradius 21.3217
lwrist 22.0937
lhand 12.3565 65.7252
lfingers 7.12502
lthumb -142.642 88.3037
rfemur -6.50998 -1.25723 4.74826
rtibia 34.2247
rfoot 5.71232 -24.8346
rtoes 11.7206
lfemur -14.4469 -0.677129 -17.0995
ltibia 7.25919
lfoot 2.41643 -26.321
ltoes 5.17868
381
root -6.33857 18.2183 -1.32761 -173.419 48.3556 -180.267
lowerback -6.89031 -1.3341 4.2264
upperback 1.77196 -1.74708 12.9447
thorax 6.08887 -0.536305 11.5538
lowerneck -9.65864 -11.7504 -2.6116
upperneck 32.7524 -11.383 -9.71529
head 11.8732 -5.84129 -4.46358
rclavicle 1.43125e-014 -9.54166e-015
rhumerus -4.08623 11.7132 -94.2941
rradius 28.266
rwrist -61.9561
rhand -28.8648 -15.0081
rfingers 7.12502
rthumb -2.22116 -44.9763
lclavicle 1.43125e-014 -9.54166e-015
lhumerus 4.1758 -61.3428 99.1717
lradius 20.5746
lwrist 25.947
lhand 9.3281 66.9392
lfingers 7.12502
lthumb -145.511 86.3869
rfemur -5.52119 -1.61328 4.66127
rtibia 34.3571
rfoot 6.76694 -24.9844
rtoes 12.0058
lfemur -13.9131 -1.38218 -17.3894
ltibia 7.34994
lfoot 2.55859 -26.6118
ltoes 5.50802
